<?xml version="1.0" encoding="UTF-8" standalone="no"?>
<svg
   xmlns:dc="http://purl.org/dc/elements/1.1/"
   xmlns:cc="http://creativecommons.org/ns#"
   xmlns:rdf="http://www.w3.org/1999/02/22-rdf-syntax-ns#"
   xmlns:svg="http://www.w3.org/2000/svg"
   xmlns="http://www.w3.org/2000/svg"
   xmlns:sodipodi="http://sodipodi.sourceforge.net/DTD/sodipodi-0.dtd"
   xmlns:inkscape="http://www.inkscape.org/namespaces/inkscape"
   width="70px"
   height="65px"
   viewBox="0 0 70 65"
   version="1.1"
   id="svg55"
   sodipodi:docname="bed.svg"
   inkscape:version="1.0.1 (3bc2e813f5, 2020-09-07)">
  <metadata
     id="metadata61">
    <rdf:RDF>
      <cc:Work
         rdf:about="">
        <dc:format>image/svg+xml</dc:format>
        <dc:type
           rdf:resource="http://purl.org/dc/dcmitype/StillImage" />
      </cc:Work>
    </rdf:RDF>
  </metadata>
  <defs
     id="defs59" />
  <sodipodi:namedview
     pagecolor="#ffffff"
     bordercolor="#666666"
     borderopacity="1"
     objecttolerance="10"
     gridtolerance="10"
     guidetolerance="10"
     inkscape:pageopacity="0"
     inkscape:pageshadow="2"
     inkscape:window-width="1920"
     inkscape:window-height="1012"
     id="namedview57"
     showgrid="false"
     inkscape:zoom="11.261538"
     inkscape:cx="14.354508"
     inkscape:cy="32.5"
     inkscape:window-x="0"
     inkscape:window-y="0"
     inkscape:window-maximized="1"
     inkscape:current-layer="svg55"
     inkscape:document-rotation="0" />
  <!-- Generator: Sketch 52.5 (67469) - http://www.bohemiancoding.com/sketch -->
  <title
     id="title19">bed</title>
  <desc
     id="desc21">Created with Sketch.</desc>
  <g
     id="Page-1"
     stroke="none"
     stroke-width="1"
     fill="none"
     fill-rule="evenodd">
    <g
       id="Artboard"
       transform="translate(-67.000000, -348.000000)"
       stroke="#000000">
      <g
         id="bed"
         transform="translate(67.000000, 348.000000)">
        <path
           d="M9.58823529,53.4117647 L12.8823529,45.7254902"
           id="Path"
           stroke-linecap="round" />
        <path
           d="M17.2745098,53.4117647 L20.5686275,45.7254902"
           id="path24"
           stroke-linecap="round" />
        <path
           d="M24.9607843,53.4117647 L28.254902,45.7254902"
           id="path26"
           stroke-linecap="round" />
        <path
           d="M32.6470588,53.4117647 L35.9411765,45.7254902"
           id="path28"
           stroke-linecap="round" />
        <path
           d="M40.3333333,53.4117647 L43.627451,45.7254902"
           id="path30"
           stroke-linecap="round" />
        <path
           d="M48.0196078,53.4117647 L51.3137255,45.7254902"
           id="path32"
           stroke-linecap="round" />
        <path
           d="M55.7058824,53.4117647 L59,45.7254902"
           id="path34"
           stroke-linecap="round" />
        <path
           d="M66.6862745,48.9537255 C66.6862745,47.1858824 65.2457516,45.7254902 63.5019608,45.7254902 L6.18431373,45.7254902 C4.44052288,45.7254902 3,47.1858824 3,48.9537255 L3,50.1835294 C3,51.9513725 4.44052288,53.4117647 6.18431373,53.4117647 L63.5019608,53.4117647 C65.2457516,53.4117647 66.6862745,51.9513725 66.6862745,50.1835294 L66.6862745,48.9537255 Z"
           id="path36"
           stroke-width="3"
           fill="#000000"
           stroke-linecap="round" />
        <polyline
           id="polyline38"
           stroke-width="3"
           stroke-linejoin="round"
           points="8.49019608 55.6078431 8.49019608 60 15.0784314 60 15.0784314 55.6078431" />
        <polyline
           id="polyline40"
           stroke-width="3"
           stroke-linejoin="round"
           points="54.6078431 55.6078431 54.6078431 60 61.1960784 60 61.1960784 55.6078431" />
        <path
           d="M34.8431373,41.3333333 C34.8431373,41.3333333 38.1372549,32.2421823 38.1372549,28.8888889 C38.1372549,25.3120426 31.5490196,20.170326 31.5490196,16.4444444 C31.5490196,13.091151 34.8431373,4 34.8431373,4"
           id="path42"
           stroke-width="3"
           stroke-linecap="round"
           stroke-linejoin="round" />
        <path
           d="M46.9215686,41.3333333 C46.9215686,41.3333333 50.2156863,32.2421823 50.2156863,28.8888889 C50.2156863,25.3120426 43.627451,20.170326 43.627451,16.4444444 C43.627451,13.091151 46.9215686,4 46.9215686,4"
           id="path44"
           stroke-width="3"
           stroke-linecap="round"
           stroke-linejoin="round" />
        <path
           d="M22.7647059,41.3333333 C22.7647059,41.3333333 26.0588235,32.2421823 26.0588235,28.8888889 C26.0588235,25.3120426 19.4705882,20.170326 19.4705882,16.4444444 C19.4705882,13.091151 22.7647059,4 22.7647059,4"
           id="path46"
           stroke-width="3"
           stroke-linecap="round"
           stroke-linejoin="round" />
        <path
           d="M59,41.3333333 C59,41.3333333 62.2941176,32.2421823 62.2941176,28.8888889 C62.2941176,25.3120426 55.7058824,20.170326 55.7058824,16.4444444 C55.7058824,13.091151 59,4 59,4"
           id="path48"
           stroke-width="3"
           stroke-linecap="round"
           stroke-linejoin="round" />
        <path
           d="M10.6862745,41.3333333 C10.6862745,41.3333333 13.9803922,32.2421823 13.9803922,28.8888889 C13.9803922,25.3120426 7.39215686,20.170326 7.39215686,16.4444444 C7.39215686,13.091151 10.6862745,4 10.6862745,4"
           id="path50"
           stroke-width="3"
           stroke-linecap="round"
           stroke-linejoin="round" />
      </g>
    </g>
  </g>
</svg>
