<?xml version="1.0" encoding="UTF-8" standalone="no"?>
<svg
   xmlns:dc="http://purl.org/dc/elements/1.1/"
   xmlns:cc="http://creativecommons.org/ns#"
   xmlns:rdf="http://www.w3.org/1999/02/22-rdf-syntax-ns#"
   xmlns:svg="http://www.w3.org/2000/svg"
   xmlns="http://www.w3.org/2000/svg"
   xmlns:sodipodi="http://sodipodi.sourceforge.net/DTD/sodipodi-0.dtd"
   xmlns:inkscape="http://www.inkscape.org/namespaces/inkscape"
   width="58px"
   height="58px"
   viewBox="0 0 58 58"
   version="1.1"
   id="svg137"
   sodipodi:docname="complete.svg"
   inkscape:version="1.0.1 (3bc2e813f5, 2020-09-07)">
  <metadata
     id="metadata143">
    <rdf:RDF>
      <cc:Work
         rdf:about="">
        <dc:format>image/svg+xml</dc:format>
        <dc:type
           rdf:resource="http://purl.org/dc/dcmitype/StillImage" />
      </cc:Work>
    </rdf:RDF>
  </metadata>
  <defs
     id="defs141" />
  <sodipodi:namedview
     pagecolor="#ffffff"
     bordercolor="#666666"
     borderopacity="1"
     objecttolerance="10"
     gridtolerance="10"
     guidetolerance="10"
     inkscape:pageopacity="0"
     inkscape:pageshadow="2"
     inkscape:window-width="954"
     inkscape:window-height="480"
     id="namedview139"
     showgrid="false"
     inkscape:zoom="12.62069"
     inkscape:cx="10.577869"
     inkscape:cy="29"
     inkscape:window-x="56"
     inkscape:window-y="50"
     inkscape:window-maximized="0"
     inkscape:current-layer="svg137"
     inkscape:document-rotation="0" />
  <!-- Generator: Sketch 52.5 (67469) - http://www.bohemiancoding.com/sketch -->
  <title
     id="title129">complete</title>
  <desc
     id="desc131">Created with Sketch.</desc>
  <g
     id="Page-1"
     stroke="none"
     stroke-width="1"
     fill="none"
     fill-rule="evenodd">
    <g
       id="Artboard"
       transform="translate(-470.000000, -363.000000)"
       fill="#000000"
       fill-rule="nonzero">
      <g
         id="complete"
         transform="translate(470.000000, 363.000000)">
        <path
           d="M12.3333333,4 C7.6923369,4 4,7.6923369 4,12.3333333 L4,45.6666667 C4,50.3076643 7.6923369,54 12.3333333,54 L45.6666667,54 C50.3076643,54 54,50.3076643 54,45.6666667 L54,17.0952381 L51.6190476,19.8482143 L51.6190476,45.6666667 C51.6190476,49.0009298 49.0009298,51.6190476 45.6666667,51.6190476 L12.3333333,51.6190476 C8.99907024,51.6190476 6.38095238,49.0009298 6.38095238,45.6666667 L6.38095238,12.3333333 C6.38095238,8.99907024 8.99907024,6.38095238 12.3333333,6.38095238 L43.7693452,6.38095238 L45.6666667,4 L12.3333333,4 Z M50.7261905,8.46428571 L27.6979167,35.6220238 L18.0252976,26.5818452 L16.3883929,28.3303571 L26.9910714,38.1889881 L27.921131,39.0446429 L28.702381,38.1145833 L52.5119048,9.98958333 L50.7261905,8.46428571 Z"
           id="Shape" />
      </g>
    </g>
  </g>
</svg>
