<?xml version="1.0" encoding="UTF-8" standalone="no"?>
<svg
   xmlns:dc="http://purl.org/dc/elements/1.1/"
   xmlns:cc="http://creativecommons.org/ns#"
   xmlns:rdf="http://www.w3.org/1999/02/22-rdf-syntax-ns#"
   xmlns:svg="http://www.w3.org/2000/svg"
   xmlns="http://www.w3.org/2000/svg"
   xmlns:sodipodi="http://sodipodi.sourceforge.net/DTD/sodipodi-0.dtd"
   xmlns:inkscape="http://www.inkscape.org/namespaces/inkscape"
   width="63px"
   height="63px"
   viewBox="0 0 63 63"
   version="1.1"
   id="svg84"
   sodipodi:docname="restart.svg"
   inkscape:version="1.0.1 (3bc2e813f5, 2020-09-07)">
  <metadata
     id="metadata90">
    <rdf:RDF>
      <cc:Work
         rdf:about="">
        <dc:format>image/svg+xml</dc:format>
        <dc:type
           rdf:resource="http://purl.org/dc/dcmitype/StillImage" />
      </cc:Work>
    </rdf:RDF>
  </metadata>
  <defs
     id="defs88" />
  <sodipodi:namedview
     pagecolor="#ffffff"
     bordercolor="#666666"
     borderopacity="1"
     objecttolerance="10"
     gridtolerance="10"
     guidetolerance="10"
     inkscape:pageopacity="0"
     inkscape:pageshadow="2"
     inkscape:window-width="956"
     inkscape:window-height="480"
     id="namedview86"
     showgrid="false"
     inkscape:zoom="11.619048"
     inkscape:cx="31.327869"
     inkscape:cy="31.5"
     inkscape:window-x="56"
     inkscape:window-y="50"
     inkscape:window-maximized="0"
     inkscape:current-layer="svg84"
     inkscape:document-rotation="0" />
  <!-- Generator: Sketch 52.5 (67469) - http://www.bohemiancoding.com/sketch -->
  <title
     id="title74">restart</title>
  <desc
     id="desc76">Created with Sketch.</desc>
  <g
     id="Page-1"
     stroke="none"
     stroke-width="1"
     fill="none"
     fill-rule="evenodd">
    <g
       id="Artboard"
       transform="translate(-668.000000, -308.000000)"
       fill="#000000">
      <g
         id="loop"
         transform="translate(673.000000, 313.000000)">
        <path
           d="M46.0478906,8.73684235 C41.2029453,3.36740345 34.2391387,0 26.5,0 C11.8644434,0 0,12.0415246 0,26.8955224 L4.96875,26.8955224 C4.96875,14.826682 14.6086426,5.04291045 26.5,5.04291045 C32.8672461,5.04291045 38.587623,7.84897493 42.5291875,12.3081685 L34.78125,20.1716418 L53,20.1716418 L53,1.68097015 L46.0478906,8.73684235 Z"
           id="Path" />
        <path
           d="M48.03125,26.1044776 C48.03125,38.173318 38.3913574,47.9570896 26.5,47.9570896 C20.1327539,47.9570896 14.412377,45.1510251 10.470916,40.6918315 L18.21875,32.8283582 L0,32.8283582 L0,51.3190299 L6.95210938,44.2631576 C11.7970547,49.6325965 18.7608613,53 26.5,53 C41.1355566,53 53,40.9584754 53,26.1044776 L48.03125,26.1044776 Z"
           id="path79" />
      </g>
    </g>
  </g>
</svg>
