<?xml version="1.0" encoding="UTF-8" standalone="no"?>
<svg
   xmlns:dc="http://purl.org/dc/elements/1.1/"
   xmlns:cc="http://creativecommons.org/ns#"
   xmlns:rdf="http://www.w3.org/1999/02/22-rdf-syntax-ns#"
   xmlns:svg="http://www.w3.org/2000/svg"
   xmlns="http://www.w3.org/2000/svg"
   xmlns:sodipodi="http://sodipodi.sourceforge.net/DTD/sodipodi-0.dtd"
   xmlns:inkscape="http://www.inkscape.org/namespaces/inkscape"
   width="66px"
   height="66px"
   viewBox="0 0 66 66"
   version="1.1"
   id="svg343"
   sodipodi:docname="toolchanger.svg"
   inkscape:version="1.0.1 (3bc2e813f5, 2020-09-07)">
  <metadata
     id="metadata349">
    <rdf:RDF>
      <cc:Work
         rdf:about="">
        <dc:format>image/svg+xml</dc:format>
        <dc:type
           rdf:resource="http://purl.org/dc/dcmitype/StillImage" />
      </cc:Work>
    </rdf:RDF>
  </metadata>
  <defs
     id="defs347" />
  <sodipodi:namedview
     pagecolor="#ffffff"
     bordercolor="#666666"
     borderopacity="1"
     objecttolerance="10"
     gridtolerance="10"
     guidetolerance="10"
     inkscape:pageopacity="0"
     inkscape:pageshadow="2"
     inkscape:window-width="956"
     inkscape:window-height="480"
     id="namedview345"
     showgrid="false"
     inkscape:zoom="11.090909"
     inkscape:cx="32.819672"
     inkscape:cy="33"
     inkscape:window-x="56"
     inkscape:window-y="50"
     inkscape:window-maximized="0"
     inkscape:current-layer="svg343"
     inkscape:document-rotation="0" />
  <!-- Generator: Sketch 52.5 (67469) - http://www.bohemiancoding.com/sketch -->
  <title
     id="title227">Artboard</title>
  <desc
     id="desc229">Created with Sketch.</desc>
  <g
     id="Page-1"
     stroke="none"
     stroke-width="1"
     fill="none"
     fill-rule="evenodd">
    <g
       id="Artboard"
       transform="translate(-66.000000, -62.000000)">
      <g
         id="Group-2"
         transform="translate(66.000000, 62.000000)">
        <g
           id="extruder-1"
           transform="translate(5.000000, 4.000000)"
           stroke="#000000"
           stroke-width="2">
          <g
             id="Group"
             fill="#000000"
             stroke-linecap="round">
            <path
               d="M0.204678363,1.43274854 L2.45614035,0.204678363"
               id="Line" />
            <path
               d="M2.45614035,0.204678363 L5.93567251,0.204678363"
               id="Line-2" />
            <path
               d="M5.93567251,0.204678363 L7.16374269,1.84210526"
               id="Line-3"
               stroke-linejoin="round" />
            <path
               d="M0.204678363,1.43274854 L0.204678363,6.34502924"
               id="Line-5" />
            <path
               d="M7.16374269,1.84210526 L12.0760234,1.84210526"
               id="Line-4" />
            <path
               d="M0.204678363,6.34502924 L1.6374269,8.80116959"
               id="Line-6" />
            <path
               d="M1.6374269,19.4444444 L0.204678363,21.4912281"
               id="Line-8" />
            <path
               d="M0.204678363,21.4912281 L0.204678363,27.2222222"
               id="Line-9" />
            <path
               d="M1.6374269,8.80116959 L1.6374269,19.4444444"
               id="Line-7" />
            <path
               d="M0.204678363,27.2222222 L5.52631579,28.245614"
               id="Line-10" />
            <path
               d="M5.52631579,28.245614 L7.16374269,26.4035088"
               id="Line-11" />
            <path
               d="M7.16374269,26.4035088 L12.0760234,26.4035088"
               id="Line-12" />
          </g>
          <g
             id="g268"
             transform="translate(16.833333, 14.500000) scale(-1, 1) translate(-16.833333, -14.500000) translate(10.333333, 0.000000)"
             stroke-linecap="round">
            <path
               d="M0.204678363,1.43274854 L2.45614035,0.204678363"
               id="path244" />
            <path
               d="M2.45614035,0.204678363 L5.93567251,0.204678363"
               id="path246" />
            <path
               d="M5.93567251,0.204678363 L7.16374269,1.84210526"
               id="path248"
               stroke-linejoin="round" />
            <path
               d="M0.204678363,1.43274854 L0.204678363,6.34502924"
               id="path250" />
            <path
               d="M7.16374269,1.84210526 L12.0760234,1.84210526"
               id="path252" />
            <path
               d="M0.204678363,6.34502924 L1.6374269,8.80116959"
               id="path254" />
            <path
               d="M1.6374269,19.4444444 L0.204678363,21.4912281"
               id="path256" />
            <path
               d="M0.204678363,21.4912281 L0.204678363,27.2222222"
               id="path258" />
            <path
               d="M1.6374269,8.80116959 L1.6374269,19.4444444"
               id="path260" />
            <path
               d="M0.204678363,27.2222222 L5.52631579,28.245614"
               id="path262" />
            <path
               d="M5.52631579,28.245614 L7.16374269,26.4035088"
               id="path264" />
            <path
               d="M7.16374269,26.4035088 L12.0760234,26.4035088"
               id="path266" />
          </g>
          <circle
             id="Oval"
             cx="11.6666667"
             cy="12.0760234"
             r="7.98245614" />
          <path
             d="M10.4385965,27.6315789 L11.6666667,29.2690058"
             id="Line-16"
             stroke-linecap="round" />
          <path
             d="M11.6666667,29.2690058 L12.8947368,27.6315789"
             id="Line-17"
             stroke-linecap="round" />
          <path
             d="M7.98245614,27.6315789 L15.3508772,27.6315789"
             id="Line-14"
             stroke-linecap="round" />
        </g>
        <g
           id="g335"
           transform="translate(38.000000, 32.000000)"
           stroke="#000000"
           stroke-width="2">
          <g
             id="g299"
             fill="#000000"
             stroke-linecap="round">
            <path
               d="M0.204678363,1.43274854 L2.45614035,0.204678363"
               id="path275" />
            <path
               d="M2.45614035,0.204678363 L5.93567251,0.204678363"
               id="path277" />
            <path
               d="M5.93567251,0.204678363 L7.16374269,1.84210526"
               id="path279"
               stroke-linejoin="round" />
            <path
               d="M0.204678363,1.43274854 L0.204678363,6.34502924"
               id="path281" />
            <path
               d="M7.16374269,1.84210526 L12.0760234,1.84210526"
               id="path283" />
            <path
               d="M0.204678363,6.34502924 L1.6374269,8.80116959"
               id="path285" />
            <path
               d="M1.6374269,19.4444444 L0.204678363,21.4912281"
               id="path287" />
            <path
               d="M0.204678363,21.4912281 L0.204678363,27.2222222"
               id="path289" />
            <path
               d="M1.6374269,8.80116959 L1.6374269,19.4444444"
               id="path291" />
            <path
               d="M0.204678363,27.2222222 L5.52631579,28.245614"
               id="path293" />
            <path
               d="M5.52631579,28.245614 L7.16374269,26.4035088"
               id="path295" />
            <path
               d="M7.16374269,26.4035088 L12.0760234,26.4035088"
               id="path297" />
          </g>
          <g
             id="g325"
             transform="translate(17.192982, 14.122807) scale(-1, 1) translate(-17.192982, -14.122807) translate(11.052632, 0.000000)"
             stroke-linecap="round">
            <path
               d="M0.204678363,1.43274854 L2.45614035,0.204678363"
               id="path301" />
            <path
               d="M2.45614035,0.204678363 L5.93567251,0.204678363"
               id="path303" />
            <path
               d="M5.93567251,0.204678363 L7.16374269,1.84210526"
               id="path305"
               stroke-linejoin="round" />
            <path
               d="M0.204678363,1.43274854 L0.204678363,6.34502924"
               id="path307" />
            <path
               d="M7.16374269,1.84210526 L12.0760234,1.84210526"
               id="path309" />
            <path
               d="M0.204678363,6.34502924 L1.6374269,8.80116959"
               id="path311" />
            <path
               d="M1.6374269,19.4444444 L0.204678363,21.4912281"
               id="path313" />
            <path
               d="M0.204678363,21.4912281 L0.204678363,27.2222222"
               id="path315" />
            <path
               d="M1.6374269,8.80116959 L1.6374269,19.4444444"
               id="path317" />
            <path
               d="M0.204678363,27.2222222 L5.52631579,28.245614"
               id="path319" />
            <path
               d="M5.52631579,28.245614 L7.16374269,26.4035088"
               id="path321" />
            <path
               d="M7.16374269,26.4035088 L12.0760234,26.4035088"
               id="path323" />
          </g>
          <circle
             id="circle327"
             cx="11.6666667"
             cy="12.0760234"
             r="7.98245614" />
          <path
             d="M10.4385965,27.6315789 L11.6666667,29.2690058"
             id="path329"
             stroke-linecap="round" />
          <path
             d="M11.6666667,29.2690058 L12.8947368,27.6315789"
             id="path331"
             stroke-linecap="round" />
          <path
             d="M7.98245614,27.6315789 L15.3508772,27.6315789"
             id="path333"
             stroke-linecap="round" />
        </g>
        <path
           id="Line-13"
           d="M40.9624537,24.0446826 L30.6576623,14.364424 L30.2932382,14.0220863 L30.9779137,13.2932382 L31.3423377,13.635576 L41.6471291,23.3158345 L44.385831,20.4004423 L47.864424,29.8423377 L38.2237518,26.9600749 L40.9624537,24.0446826 Z"
           fill="#000000"
           fill-rule="nonzero" />
        <path
           id="path338"
           d="M24.4590302,42.2727843 L35.0900217,52.1334141 L35.4566076,52.4734358 L34.7765642,53.2066076 L34.4099783,52.8665859 L23.7789868,43.0059561 L21.0588131,45.9386434 L17.5204621,36.5189793 L27.179204,39.340097 L24.4590302,42.2727843 Z"
           fill="#000000"
           fill-rule="nonzero" />
      </g>
    </g>
  </g>
</svg>
